<svg width="167" height="37" viewBox="0 0 167 37" fill="none" xmlns="http://www.w3.org/2000/svg">
<g id="Group 427319489">
<path id="Vector" d="M48.957 25.432H60.909V22.1818H53.205V9.93945H48.957V25.432Z" fill="#74BDE0"/>
<path id="Vector_2" d="M67.9895 23.2647C66.2855 23.2647 65.3975 21.9213 65.3975 19.9062C65.3975 17.8911 66.2855 16.526 67.9895 16.526C69.6935 16.526 70.6055 17.8911 70.6055 19.9062C70.6055 21.9213 69.6935 23.2647 67.9895 23.2647ZM68.0135 25.7782C71.9735 25.7782 74.5655 23.2431 74.5655 19.9062C74.5655 16.5693 71.9735 14.0342 68.0135 14.0342C64.0775 14.0342 61.4375 16.5693 61.4375 19.9062C61.4375 23.2431 64.0775 25.7782 68.0135 25.7782Z" fill="#74BDE0"/>
<path id="Vector_3" d="M81.4202 29.2669C83.2443 29.2669 84.8523 28.8986 85.9323 28.0319C86.9163 27.2301 87.5643 26.0167 87.5643 24.3483V14.3377H83.8203V15.5295H83.7723C83.0523 14.5977 81.9483 14.0127 80.3163 14.0127C77.2683 14.0127 75.1562 16.3095 75.1562 19.5597C75.1562 22.9616 77.7243 24.825 80.4843 24.825C81.9723 24.825 82.9082 24.2833 83.6283 23.5466H83.7243V24.6517C83.7243 25.9951 83.0283 26.7751 81.3723 26.7751C80.0763 26.7751 79.4282 26.2768 79.2122 25.6917H75.4202C75.8042 28.0102 78.0362 29.2669 81.4202 29.2669ZM81.3963 22.2032C79.9323 22.2032 78.9723 21.1198 78.9723 19.4514C78.9723 17.7613 79.9323 16.6779 81.3963 16.6779C83.0283 16.6779 83.8923 17.9346 83.8923 19.4297C83.8923 20.9898 83.1003 22.2032 81.3963 22.2032Z" fill="#74BDE0"/>
<path id="Vector_4" d="M95.2629 23.2647C93.5589 23.2647 92.6709 21.9213 92.6709 19.9062C92.6709 17.8911 93.5589 16.526 95.2629 16.526C96.9669 16.526 97.8789 17.8911 97.8789 19.9062C97.8789 21.9213 96.9669 23.2647 95.2629 23.2647ZM95.2869 25.7782C99.2469 25.7782 101.838 23.2431 101.838 19.9062C101.838 16.5693 99.2469 14.0342 95.2869 14.0342C91.3509 14.0342 88.7109 16.5693 88.7109 19.9062C88.7109 23.2431 91.3509 25.7782 95.2869 25.7782Z" fill="#74BDE0"/>
<path id="Vector_5" d="M102.98 25.432H106.892V14.338H102.98V25.432ZM102.98 12.7996H106.892V9.93945H102.98V12.7996Z" fill="#74BDE0"/>
<path id="Vector_6" d="M108.59 29.0936H112.502V24.2833H112.55C113.318 25.215 114.446 25.7784 116.03 25.7784C119.246 25.7784 121.382 23.4816 121.382 19.8847C121.382 16.5478 119.39 14.0127 116.126 14.0127C114.446 14.0127 113.246 14.6844 112.406 15.6811H112.334V14.3377H108.59V29.0936ZM115.022 23.0482C113.342 23.0482 112.382 21.8132 112.382 20.0147C112.382 18.2163 113.246 16.8512 114.95 16.8512C116.63 16.8512 117.422 18.1079 117.422 20.0147C117.422 21.8998 116.51 23.0482 115.022 23.0482Z" fill="#74BDE0"/>
<path id="Vector_7" d="M127.749 25.7784C130.965 25.7784 133.341 24.5217 133.341 22.0948C133.341 19.2563 130.797 18.758 128.637 18.433C127.077 18.1729 125.685 18.0646 125.685 17.2846C125.685 16.5912 126.429 16.2662 127.389 16.2662C128.469 16.2662 129.213 16.5695 129.357 17.5662H132.957C132.765 15.3778 130.893 14.0127 127.413 14.0127C124.509 14.0127 122.109 15.2261 122.109 17.5662C122.109 20.1664 124.389 20.6864 126.525 21.0114C128.157 21.2715 129.645 21.3798 129.645 22.3765C129.645 23.0916 128.901 23.4816 127.725 23.4816C126.429 23.4816 125.613 22.9399 125.469 21.8348H121.773C121.893 24.2833 124.149 25.7784 127.749 25.7784Z" fill="#74BDE0"/>
<path id="Vector_8" d="M138.656 25.7564C140.36 25.7564 141.44 25.1497 142.328 24.0663H142.4V25.4314H146.144V14.3374H142.232V20.5344C142.232 21.8562 141.416 22.7662 140.072 22.7662C138.824 22.7662 138.224 22.0945 138.224 20.8811V14.3374H134.336V21.6178C134.336 24.088 135.824 25.7564 138.656 25.7564Z" fill="#74BDE0"/>
<path id="Vector_9" d="M147.848 25.4317H151.76V19.213C151.76 17.8913 152.48 16.9595 153.704 16.9595C154.88 16.9595 155.432 17.6529 155.432 18.8446V25.4317H159.344V19.213C159.344 17.8913 160.04 16.9595 161.288 16.9595C162.464 16.9595 163.016 17.6529 163.016 18.8446V25.4317H166.928V18.2163C166.928 15.7245 165.536 14.0127 162.752 14.0127C161.168 14.0127 159.848 14.6194 158.888 15.9628H158.84C158.216 14.7711 156.992 14.0127 155.384 14.0127C153.608 14.0127 152.432 14.7711 151.664 15.9195H151.592V14.3377H147.848V25.4317Z" fill="#74BDE0"/>
<path id="Vector_10" d="M25.0925 1.07792L21.1595 0.126465L17.8451 11.2941L14.8528 1.21188L10.9197 2.16334L14.1527 13.0564L6.10008 5.78629L3.22089 8.38572L12.0536 16.3602L1.05386 13.6992L0 17.2501L12.0186 20.1576C11.881 19.6217 11.8082 19.0634 11.8082 18.4898C11.8082 14.4292 15.4542 11.1375 19.9518 11.1375C24.4494 11.1375 28.0954 14.4292 28.0954 18.4898C28.0954 19.0597 28.0235 19.6146 27.8876 20.1473L38.8103 22.7896L39.8641 19.2387L27.7977 16.3197L38.7982 13.6585L37.7443 10.1077L25.6784 13.0265L33.731 5.75645L30.8518 3.15702L22.1416 11.0209L25.0925 1.07792Z" fill="#74BDE0"/>
<path id="Vector_11" d="M27.8736 20.188C27.5364 21.4751 26.8245 22.6313 25.8477 23.5577L33.7607 30.7019L36.6399 28.1025L27.8736 20.188Z" fill="#74BDE0"/>
<path id="Vector_12" d="M25.7678 23.6318C24.7792 24.5434 23.5299 25.2237 22.1289 25.5743L25.0083 35.2761L28.9413 34.3246L25.7678 23.6318Z" fill="#74BDE0"/>
<path id="Vector_13" d="M21.982 25.6101C21.332 25.7609 20.6507 25.8411 19.9486 25.8411C19.1964 25.8411 18.468 25.749 17.7765 25.5767L14.8945 35.2873L18.8275 36.2387L21.982 25.6101Z" fill="#74BDE0"/>
<path id="Vector_14" d="M17.6365 25.5415C16.2569 25.1735 15.0298 24.4845 14.0614 23.5703L6.12891 30.732L9.0081 33.3315L17.6365 25.5415Z" fill="#74BDE0"/>
<path id="Vector_15" d="M13.996 23.5072C13.0442 22.5872 12.3509 21.4464 12.0209 20.1792L1.0625 22.8302L2.11635 26.381L13.996 23.5072Z" fill="#74BDE0"/>
</g>
</svg>
